# xmcd
#
# Track frame offsets:
#	150
#	14676
#	28410
#	45136
#	68519
#	83214
#	97103
#	113471
#	128634
#	141362
#
# Disc length: 2122 seconds
#
# Revision: 1
# Processed by: cddbd v1.5.2PL0 Copyright (c) Steve Scherf et al.
# Submitted via: EasyCDDAExtractor 2010.6.0.0
#
DISCID=7e08480a
DTITLE=Stalingrad Cowgirls - Kiss your heart goodbye
DYEAR=2010
DGENRE=Club
TTITLE0=It's not over
TTITLE1=Baby girl
TTITLE2=I remember
TTITLE3=911
TTITLE4=Friday night
TTITLE5=Kill me
TTITLE6=Fool
TTITLE7=Bad luck
TTITLE8=Not ok
TTITLE9=Ride with me
EXTD=
EXTT0=
EXTT1=
EXTT2=
EXTT3=
EXTT4=
EXTT5=
EXTT6=
EXTT7=
EXTT8=
EXTT9=
PLAYORDER=
